<svg version="1.1" xmlns="http://www.w3.org/2000/svg" viewBox="0 0 1536 1536" width="3072" height="3072"><!-- svg-source:excalidraw --><metadata></metadata><defs><symbol id="image-4087530783"><svg xmlns="http://www.w3.org/2000/svg" width="100%" height="100%" viewBox="0 0 628 628" preserveAspectRatio="none"><path fill="#fafafa" d="M0 0h628v628H0z"></path><path fill="#f9f9fa" d="M319 190c21.956 2.758 21.956 2.758 32.063 5.324 3.158.727 6.285 1.145 9.5 1.551 5.673.814 10.425 2.551 15.64 4.883C381.458 204.092 386.223 206 392 206v2l3.688.313c3.818.323 6.06 1.712 9.312 3.687 2.368.944 4.725 1.834 7.125 2.688a508 508 0 0 1 18.938 7.375l2.377.957c3.77 1.573 7.078 3.227 10.369 5.664 2.852 2.07 3.954 2.642 7.191 3.316 2.688.875 2.688.875 5 2l1 3c2.21 1.4 4.38 2.657 6.688 3.875 4.935 2.626 9.033 5.47 13.312 9.125l2.996 1.969c3.334 2.254 6.153 4.771 9.067 7.531 2.859 2.687 5.699 5.316 8.808 7.719L500 269v2l1.75.188c3.174 1.146 4.378 3.072 6.25 5.812v2l4 1v2l2.063 1.188c6.043 3.729 10.163 8.865 13.937 14.812a547 547 0 0 0 4 5.625l2 2.79c1.858 2.4 3.802 4.495 6 6.585-1.433 3.96-3.331 7.287-5.625 10.813l-1.914 2.957L531 329l-1-2c.996-2.164.996-2.164 2.438-4.625l1.433-2.477L535 318c-4.2 3.905-7.255 8.124-10.437 12.875-5.308 7.753-11.285 14.52-17.825 21.246-2.699 2.557-2.699 2.557-3.738 4.879h-2v2c-1.363 1.34-1.363 1.34-3.312 2.938-3.498 2.957-6.694 6.08-9.875 9.375-6.47 6.541-13.56 12.544-21.477 17.28-2.185 1.316-3.95 2.7-5.836 4.407-2.687 2.365-5.403 4.193-8.5 6l-1.328 1.379c-2.05 1.988-4.247 3.362-6.672 4.871l-2.969 1.855L438 409l-5.5 3.563c-4.416 2.81-8.92 5.362-13.535 7.832-6.882 3.726-13.699 7.613-20.38 11.687-3.742 2.133-7.572 3.341-11.71 4.48l-2.238.636c-8.804 2.467-17.583 4.509-26.637 5.802l-2.73.988c-11.61 3.593-25.487 2.11-37.582 2.137l-2.057.008c-8.926.027-17.742-.302-26.631-1.133l7 2v1c-9.108.153-17.347.002-26-3-2.604-.52-5.21-.993-7.828-1.437C260 443 260 443 258 441q2.156.214 4.313.438l2.425.246C267 442 267 442 270 443v-4l-2.527-.367c-6.564-.978-13.016-2.1-19.473-3.633l-1 2c-4.668-1.64-4.668-1.64-6.5-3.625L239 432c-1.052.03-1.052.03-2.125.063-3.755-.082-6.323-1.473-9.687-3.055-2.668-1.23-5.397-2.097-8.188-3.008a621 621 0 0 1-7.73-3.098A99 99 0 0 0 206 421l-1-2-3.562-1.125c-10.859-3.442-20.982-9.548-30.938-15l-2.209-1.198c-4.395-2.44-8.374-5.157-12.353-8.226-1.826-1.367-3.678-2.599-5.614-3.803-7.832-4.875-13.986-9.934-19.957-16.984-2.245-2.706-2.245-2.706-4.922-4.578-2.524-2.153-3.81-4.256-5.355-7.164-2.021-3.565-4.596-6.74-7.09-9.985-10-13.081-10-13.081-10-15.937h-3c2.102 6.66 5.197 11.342 9.563 16.75a1391 1391 0 0 1 3.503 4.422l1.561 1.94c1.374 1.889 2.392 3.773 3.373 5.888h-2c-1.43-1.64-2.794-3.34-4.125-5.062-4.561-5.699-9.202-11.178-15.875-14.375L94 343c-.884-5.697.298-9.431 2.809-14.523 1.314-2.733 2.361-5.519 3.441-8.352 2.671-6.46 6.46-11.648 10.75-17.125q1.755-2.34 3.5-4.687 1.248-1.658 2.5-3.313c0 2.966-.474 4.733-1.437 7.5l-.81 2.344L114 307l-1 3c2.014-.503 2.014-.503 4-2 .471-1.616.93-3.237 1.316-4.875C121.2 294.162 128.262 285.417 135 279c3.471-3.381 6.851-6.76 9.938-10.5 2.712-3.22 5.688-5.923 8.898-8.64a122 122 0 0 0 4.266-3.844c7.378-6.947 15.538-12.676 23.798-18.52a343 343 0 0 0 5.495-4l2.855-2.121 2.39-1.79c2.677-1.798 5.468-3.165 8.36-4.585l2.188-1.687C205 222 205 222 208 222v-2c2.642-1.121 5.215-2.058 7.988-2.809 5.166-1.455 10.13-3.459 15.137-5.379 38.454-14.53 38.454-14.53 53.875-13.812v-2l3.902-.402 5.036-.536 2.576-.263 2.45-.264 2.27-.238c1.787-.125 1.787-.125 2.766-1.297 3.623-.285 7.245-.45 10.875-.621L318 192z"></path><path fill="#7f060f" d="M365 230v2h2v2l3 1v2l1.688.813c2.512 1.29 4.901 2.717 7.312 4.187l2.75 1.563C384 245 384 245 385 247l1.89.402c2.11.598 2.11.598 3.532 2.102 3.67 5.69 6.657 11.595 9.605 17.677 2.188 4.447 4.592 8.348 7.715 12.214 1.861 2.375 3.152 4.807 4.258 7.605l-1 3h-1v6h3c1.56 3.12.906 6.35.688 9.75l-.152 2.407q-.168 2.578-.349 5.155-.187 2.684-.354 5.369c-.664 10.406-1.801 20.485-4.27 30.632l-.623 2.606c-.624 2.382-.624 2.382-1.94 6.081l-3 1v-3l-.559 2.055c-2.524 8.101-6.567 12.961-12.441 18.945a376 376 0 0 0-3.75 4.313c-4.4 5.036-9.07 9.471-14.25 13.687l-2-1c-3.172.484-5.424 1.758-8.125 3.438-3.366 1.943-6.165 2.96-10 3.562-3.549.562-5.602 1.277-8.375 3.563-4.158 3.31-8.331 3.36-13.5 3.437l-2.038.062c-7.6.14-15.045-.7-22.587-1.562l-3.91-.434Q296.732 405.54 292 405v-2l-3.187.125c-5.694-.187-9.198-2.206-13.75-5.5l-2.641-1.887L270 394c-4.228-2.902-8.53-5.497-13-8v-2h-3v-2l-1.812-.781c-4.5-2.508-7.3-7.136-9.286-11.793q-.958-2.595-1.906-5.196c-.935-2.474-.935-2.474-3.496-4.605-3.357-3.525-4.202-7.158-5.59-11.762-.864-3-.864-3-2.597-6.113-6.735-14.11-3.852-42.722-.313-57.75 2.606-6.929 6.315-13.273 11-19h2l.625-3.562c2.423-9.394 11.136-14.704 18.375-20.438l2.688-2.246c4.641-3.856 8.618-6.75 14.312-8.754l1.89-.766c4.143-1.663 8.232-2.792 12.598-3.699 3-.639 5.973-1.361 8.95-2.097 1.009-.25 2.018-.498 3.058-.754 2.477-.589 2.477-.589 4.504-1.684 19.717-2.014 39.26-3.355 56 9"></path><path fill="#121213" d="m321 180-1 2c-4.32.608-8.642.746-13 1l19 1 1-3q2.438-.04 4.875-.062l2.742-.036c2.709.079 5.297.285 7.985.582 3.838.409 7.632.612 11.492.692l3.183.072q3.223.064 6.446.094c6.349.167 11.196 1.096 16.99 3.693 3.398 1.434 6.644 1.944 10.287 2.528 5.434.918 10.626 2.113 15.871 3.808 3.027.894 5.995 1.288 9.129 1.629l1 3c3.054.93 3.054.93 6.688 1.5 4.957.88 8.895 2.058 13.312 4.5v2l2.375-.312c5.228.45 9.06 2.854 13.625 5.312l3.188 1.375c3.87 2.236 6.989 5.158 9.812 8.625v2c-2.584-.157-4.456-.546-6.469-2.227l-1.594-1.523c-3.937-3.616-8.314-5.287-13.265-7.172C442 210 442 210 439 208a67 67 0 0 0-3.937-1.375l-2.38-.766L430 205q-3.188-1.059-6.375-2.125l-3.023-1.008L415 200c9.236 5.639 9.236 5.639 19.188 9.5 1.812.5 1.812.5 3.25 2 2.076 1.994 3.749 2.088 6.562 2.5 3.3.644 5.838 1.893 8.75 3.563l2.422 1.378c.603.35 1.206.7 1.828 1.059v2l2.18.762c3.074 1.35 5.306 2.977 7.945 5.05 4.53 3.485 9.142 6.74 13.897 9.91C491.818 244.925 500.833 252.817 510 262l1.809 1.773c8.172 8.035 8.172 8.035 11.191 12.227v2l3 1v2h2v2h2a207 207 0 0 1 4 5l2.371 2.293c2.7 2.78 4.755 5.597 6.879 8.832l2.078 3.133C547 305 547 305 548 308h2q1.23 2.087 2.438 4.188l1.37 2.355c1.216 2.506 1.768 4.715 2.192 7.457-4.661-1.394-7.232-4.028-10.312-7.625l-1.377-1.562A482 482 0 0 1 541 309l2 3c.467 5.698.01 8.984-3 14l4-2c-.615 3.853-2.443 6.279-4.75 9.375l-2.187 2.941a158 158 0 0 1-4.813 5.997 55 55 0 0 0-4.437 6.062L526 351h-2l-.77 1.766c-1.363 2.476-2.872 4.04-4.918 5.984-4.005 3.905-7.66 8.018-11.312 12.25a956 956 0 0 1-4.812 5.5l-2.27 2.594L498 381h-2l-1 3c-1.637 1.613-1.637 1.613-3.687 3.313-2.67 2.249-5.17 4.522-7.563 7.062-2.754 2.63-3.324 2.87-6.75 3.625-4.589 2.57-6.154 4.2-8 9a98 98 0 0 1-5 3 243 243 0 0 0-3.75 3.5c-3.517 3.164-6.627 4.677-11.172 5.895-4.41 1.285-6.91 3.334-10.078 6.605-2.918 1.945-4.625 2.453-8 3l-1 3c-4.893 3.215-10.154 5.212-15.852 6.398-3.77 1.056-7.22 2.865-10.73 4.579C401 444 401 444 398 444v2l-1.937.375L394 447l-1 2c-1.96.563-1.96.563-4.375 1-3.3.602-4.74 1.076-7.625 3-2.262.195-2.262.195-4.687.125l-2.45-.055L372 453v2h-8v-2a676 676 0 0 0-5.25.875l-2.953.492c-2.712.485-2.712.485-4.626 1.606-12.743 6.03-31.478 5.4-45.296 5.402l-3.459.004c-6.684-.088-12.921-.79-19.416-2.379v-2h2v-2l-1.871.07c-6.069.13-11.28-.535-17.129-2.07q-2.939-.736-5.878-1.47-2.122-.53-4.242-1.066c-3.594-.907-7.189-1.768-10.817-2.526a69 69 0 0 1-7.965-2.231c-3.841-1.3-7.7-2.525-11.575-3.723-22.74-7.08-22.74-7.08-33.418-12.437-3.05-1.52-6.123-2.797-9.292-4.047-8.848-3.625-17.324-8.543-24.813-14.5v-2c5.12.494 8.465 3.107 12.625 5.875 11.66 7.489 24.474 12.211 37.375 17.125v-2l-2.637-.344c-8.915-1.74-17.347-7.095-25.363-11.281l-2.175-1.127c-3.971-2.104-7.336-4.392-10.825-7.248-2.501-1.67-5.062-3.24-7.625-4.812l-4.316-2.68q-3.509-2.17-7.024-4.328c-6.11-3.805-11.893-7.96-17.666-12.25-4.334-3.209-8.725-6.181-13.369-8.93l7 7c-4.355 0-6.258-2.246-9.57-4.91-4.627-3.98-8.803-8.384-13.035-12.774-4.234-4.327-8.572-8.177-13.432-11.79-3.555-2.763-3.555-2.763-4.963-4.526v-4c4.593 1.486 7.436 3.85 11 7a412 412 0 0 0-2.312-3.875l-1.301-2.18c-1.405-2.213-1.405-2.213-4.387-3.945-.187-2.625-.187-2.625 0-5l4 1 2-13-2 4a196 196 0 0 1-2.312 3.625C84.762 338.24 82.368 343.081 80 348h-3c.183-9.138 5.014-17.521 10-25h2l-.25-3.125c.296-4.584 1.49-6.271 4.25-9.875l2.125-3.375L97 304h2l.75-2.125c1.422-3.27 3.122-6.016 5.25-8.875h2c.26-.568.52-1.137.79-1.723 1.315-2.474 2.844-4.52 4.585-6.714l1.898-2.399L116 280l2-2.562c11.241-13.7 23.873-26.707 38-37.438l3.273-2.543c5.33-4.135 10.696-8.22 16.141-12.203 1.637-1.245 1.637-1.245 3.152-2.82 1.935-1.935 4.048-3.102 6.434-4.434l2.875-1.625C191 215 191 215 194.563 214.563c3.956-.648 5.423-2.037 8.437-4.563h4v-2l7-1v-2l3.43-.988 4.445-1.325 2.262-.646c4.716-1.37 4.716-1.37 7.863-5.041a99 99 0 0 1 7.875-3l2.325-.794c9.18-3.083 18.31-5.295 27.913-6.581 2.992-.538 2.992-.538 5.961-2.047 5.215-2.339 10.814-2.981 16.426-3.828l3.488-.536c8.565-1.221 16.45-1.514 25.012-.214m-2 10-1 2c-2.324.282-4.662.452-7 .563-2.335.115-4.67.253-7 .437l-1 1a66 66 0 0 1-4.035.535l-2.451.264-2.577.263-2.587.276q-3.175.336-6.35.662v2l-2.352.113c-21.36 1.3-40.45 9.24-60.187 16.965-3.117 1.168-6.25 2.052-9.461 2.922a152 152 0 0 0-5 2v2l-1.625.25c-3.224 1.018-5.59 2.839-8.375 4.75l-3.148 1.746c-4.45 2.52-8.539 5.492-12.665 8.504l-2.414 1.755c-5.721 4.18-11.321 8.468-16.773 12.995l-3.09 2.531c-6.981 5.749-13.343 11.773-19.41 18.469-2.652 2.927-5.306 5.809-8.125 8.578-6.652 6.784-12.582 15.845-15.5 24.922L116 309l-3 1 5-15c-4.128 3.873-7.37 8.022-10.562 12.688l-1.475 2.15c-3 4.475-5.451 8.807-7.193 13.932-.828 2.398-1.897 4.581-3.02 6.855-1.49 3.461-2.785 6.608-2.582 10.422 1.611 3.783 5.385 5.556 8.723 7.73 5.334 3.814 11.161 9.327 14.109 15.223h2c-1.356-2.923-2.916-5.32-4.934-7.828l-1.716-2.176a805 805 0 0 0-3.563-4.445c-3.685-4.694-5.988-8.852-7.787-14.551h3l.819 2.234c1.133 2.654 2.383 4.694 4.08 7.016l1.703 2.344 1.773 2.406 1.75 2.406c2.33 3.191 4.67 6.342 7.164 9.406C122 363 122 363 123.023 365.114c1.193 2.305 2.588 3.45 4.602 5.075 3.07 2.573 5.637 5.225 8.188 8.312 3.587 4.121 7.338 6.773 12.011 9.559 3.07 1.876 6 3.875 8.944 5.942 7.83 5.5 15.776 10.502 24.232 14.999l2.034 1.083a596 596 0 0 0 6.341 3.292l1.945 1.012c3.334 1.673 6.451 2.88 10.094 3.715L205 419l1 2a81 81 0 0 0 5.375 2c3.292 1.112 5.714 2.06 8.625 4 2.13.736 4.278 1.418 6.438 2.063l3.433 1.035c3.094.892 6.16 1.708 9.316 2.34.599.185 1.197.37 1.813.562l1 2c1.979.727 3.98 1.398 6 2l1-2 3.832.875 4.98 1.125 2.526.578 2.432.547 2.237.508c2.147.458 2.147.458 4.993.367v4l-2.625-1c-3.332-.987-5.927-1.164-9.375-1 2.773 2.773 5.838 2.909 9.563 3.563 7.317 1.317 7.317 1.317 8.437 2.437 6.696.972 13.242 1.114 20 1-2.62-1.746-4.038-2.387-7-3l2.292.214c8.81.759 17.558.946 26.396.911l2.115-.005c19.4.517 19.4.517 38.197-3.12 1.931-.312 3.87-.58 5.813-.812 7.707-1.113 14.965-3.291 22.372-5.627a119 119 0 0 1 4.335-1.237c11.084-3.115 21.355-10.5 30.906-16.71 3.51-2.2 7.15-4.12 10.8-6.071 3.862-2.149 7.56-4.524 11.266-6.93a155 155 0 0 1 5.215-3.207c2.34-1.312 2.34-1.312 4.106-3.219 2.563-2.563 5.353-4.6 8.285-6.722 1.9-1.376 1.9-1.376 3.273-2.961C466 388 466 388 468.777 386.648c3.757-1.92 6.628-4.257 9.786-7.023l1.813-1.568c5.064-4.436 9.846-9.128 14.536-13.955 3.905-4.01 3.905-4.01 6.088-5.102v-2h2c1.503-1.447 1.503-1.447 3.063-3.375 1.924-2.28 3.841-4.525 5.906-6.68 6.242-6.545 11.257-13.782 16.334-21.253l1.756-2.57c.518-.77 1.037-1.539 1.572-2.331C533 319 533 319 535 318l-1.129 1.898-1.433 2.477-1.442 2.46L530 327l1 2a445 445 0 0 0 4.625-6.687l1.352-1.897c1.45-2.08 1.45-2.08 3.023-5.416-.961-4.613-3.695-6.77-7-10-2.617-3.273-5.05-6.685-7.504-10.082-3.93-5.366-7.906-10.191-13.496-13.918l-1-2h-3l-.75-1.75c-1.433-2.58-3.034-4.311-5.25-6.25h-2l-.785-1.8c-1.312-2.375-2.585-3.647-4.652-5.387L492.418 262 490 260l-2.762-2.312C482.624 253.86 478.04 250.24 473 247l-2.187-1.875c-3.595-2.716-7.468-4.636-11.485-6.66C457 237 457 237 456 234c-2.295-1.135-2.295-1.135-5-2-3.187-1.15-6.028-2.565-8.953-4.254-5.36-2.997-10.909-5.448-16.547-7.871l-2.973-1.3c-5.173-2.24-10.322-4.276-15.712-5.931C405 212 405 212 402.438 210.375c-3.45-1.946-6.505-2.042-10.438-2.375v-2l-3.125-.375c-5.484-.885-10.174-2.733-15.187-5.062-7.009-2.951-14.003-4.084-21.47-5.216-2.929-.458-5.843-.988-8.76-1.52-8.128-1.478-16.27-2.724-24.458-3.827"></path><path fill="#191111" d="M365 230v2h2v2l3 1v2l1.688.813c2.512 1.29 4.901 2.717 7.312 4.187l2.75 1.563C384 245 384 245 385 247l1.89.402c2.11.598 2.11.598 3.532 2.102 3.67 5.69 6.657 11.595 9.605 17.677 2.188 4.447 4.592 8.348 7.715 12.214 1.861 2.375 3.152 4.807 4.258 7.605l-1 3h-1v6h3c1.56 3.12.906 6.35.688 9.75l-.152 2.407q-.168 2.578-.349 5.155-.187 2.684-.354 5.369c-.664 10.406-1.801 20.485-4.27 30.632l-.623 2.606c-.624 2.382-.624 2.382-1.94 6.081l-3 1v-3l-.559 2.055c-2.524 8.101-6.567 12.961-12.441 18.945a376 376 0 0 0-3.75 4.313c-4.4 5.036-9.07 9.471-14.25 13.687l-2-1c-3.172.484-5.424 1.758-8.125 3.438-3.366 1.943-6.165 2.96-10 3.562-3.549.562-5.602 1.277-8.375 3.563-4.158 3.31-8.331 3.36-13.5 3.437l-2.038.062c-7.6.14-15.045-.7-22.587-1.562l-3.91-.434Q296.732 405.54 292 405v-2l-3.187.125c-5.694-.187-9.198-2.206-13.75-5.5l-2.641-1.887L270 394c-4.228-2.902-8.53-5.497-13-8v-2h-3v-2l-1.812-.781c-4.5-2.508-7.3-7.136-9.286-11.793q-.958-2.595-1.906-5.196c-.935-2.474-.935-2.474-3.496-4.605-3.357-3.525-4.202-7.158-5.59-11.762-.864-3-.864-3-2.597-6.113-6.735-14.11-3.852-42.722-.313-57.75 2.606-6.929 6.315-13.273 11-19h2l.625-3.562c2.423-9.394 11.136-14.704 18.375-20.438l2.688-2.246c4.641-3.856 8.618-6.75 14.312-8.754l1.89-.766c4.143-1.663 8.232-2.792 12.598-3.699 3-.639 5.973-1.361 8.95-2.097 1.009-.25 2.018-.498 3.058-.754 2.477-.589 2.477-.589 4.504-1.684 19.717-2.014 39.26-3.355 56 9m-52.84-2.98c-11.948.39-22.566 4.593-32.226 11.605-1.896 1.348-3.813 2.422-5.872 3.5-3.142 1.924-3.672 2.667-5.062 5.875-2 1.188-2 1.188-4 2l-2 1 1-3c-7.086 2.283-11.405 8.228-15.516 14.203-3.645 6.23-6.014 13.038-8.484 19.797q-.841 2.25-1.687 4.5L237 290l-1.063 2.218c-1.216 3.61-1.242 7.029-1.238 10.794l-.013 2.328a784 784 0 0 0-.002 4.869c.003 2.453-.02 4.906-.045 7.36-.051 11.916 1.75 21.02 7.361 31.618 2.535 4.875 4.87 9.747 7 14.813 1.37 2.871 1.37 2.871 3 5h3v4l1.688.688c2.317 1.315 3.792 2.827 5.617 4.738 3.872 3.596 8.267 6.7 12.695 9.574h2v2l2.234.852c2.478 1.028 4.685 2.207 7.016 3.523 6.133 3.146 12.595 4.406 19.285 5.828C309 401 309 401 310 402c20.472 1.185 39.613-2.477 56.414-14.766A297 297 0 0 0 373 382l1.895-1.484c1.409-1.123 2.764-2.313 4.105-3.516v-2l1.73-.723c8.781-4.942 15.882-16.332 19.555-25.476 2.296-6.953 3.188-13.531 3.715-20.801l.221-2.665c1.519-20.786-3.368-44.16-15.448-61.538a997 997 0 0 0-6.435-8.108 195 195 0 0 1-3.791-4.982c-8.105-10.523-17.072-14.266-29.602-17.836a58 58 0 0 1-6.82-2.496c-9.4-3.66-20.056-3.424-29.965-3.355"></path><path fill="#190d0e" d="M404 300c2.097 3.146 2.52 5.015 3.125 8.688l.508 3.011L408 314l-.07-2.117-.055-2.758-.07-2.742L408 304l2-2c2.633 3.908 2.303 8.098 2.25 12.625l-.02 2.542c-.219 13.553-1.147 28.116-6.23 40.833l-3 1v-3l-.559 2.055c-2.524 8.101-6.567 12.961-12.441 18.945a376 376 0 0 0-3.75 4.313c-4.4 5.036-9.07 9.471-14.25 13.687l-2-1c-3.172.484-5.424 1.758-8.125 3.438-3.366 1.943-6.165 2.96-10 3.562-3.549.562-5.602 1.277-8.375 3.563-4.158 3.31-8.331 3.36-13.5 3.437l-2.038.062c-7.6.14-15.045-.7-22.587-1.562l-3.91-.434Q296.732 405.54 292 405v-2l-3.187.125c-5.694-.187-9.198-2.206-13.75-5.5l-2.641-1.887L270 394c-4.228-2.902-8.53-5.497-13-8v-2h-3v-2l-1.797-.742c-2.57-1.468-3.748-2.98-5.453-5.383l-1.578-2.195L244 372l3-1 1-3 1 3h2l1-3 3 1v4l1.688.188c2.602.914 3.766 2.222 5.617 4.207C266.567 381.43 271.74 385.37 277 388v2l2.234.355c2.762.644 4.58 1.542 7.016 2.957 6.132 3.21 12.57 4.463 19.285 5.891C309 400 309 400 310 401c20.555 1.19 39.585-2.551 56.484-14.8 3.065-2.34 5.969-4.633 8.649-7.41L377 377h2v-2c1.504-1.41 1.504-1.41 3.563-3.062 9.88-8.47 17.181-20.019 19.437-32.938 1.045-8.383 1.091-16.689 1-25.125q-.038-3.63-.062-7.258l-.036-3.2L403 301z"></path><path fill="#252526" d="M316 147v2c-2.305 1.152-4.164 1.378-6.719 1.719l-2.824.386-5.914.79-2.824.386-2.596.346c-2.169.277-2.169.277-4.123 1.373-2.333.04-4.667.043-7 0v2l-1.94.351-8.748 1.587-3.052.552-2.96.537-2.713.492c-2.534.471-5.061.97-7.587 1.481v2c-6.143 2.417-12.272 4.806-18.562 6.813-8.142 2.655-16.04 5.957-23.965 9.189a387 387 0 0 1-5.008 1.98 143 143 0 0 0-16.215 7.518l-2.168 1.145c-4.195 2.24-8.147 4.676-12.082 7.355q-2.323 1.41-4.687 2.75l-2.262 1.297C170 202 170 202 167 202v2a74 74 0 0 1-4.5 3.125c-4.52 3.05-8.208 6.377-11.906 10.371L149 219h-2l-1 3c-1.742 1.719-1.742 1.719-3.875 3.5-2.979 2.503-2.979 2.503-5.758 5.219L135 232h-2l-.062 2.5c-1.159 4.324-3.218 6.215-6.235 9.41-1.74 2.137-2.505 3.795-3.328 6.403C122 254 122 254 119.5 256c-2.5 1-2.5 1-5.5 1 .387-5.383 3.497-8.777 6.688-12.875l1.568-2.066c3.433-4.49 7.033-8.798 10.744-13.059l-1.309 1.441C130 232 130 232 126.937 232.937c-3.05.77-3.05.77-4.312 3.188L122 238h-2l-.812 1.875C118 242 118 242 115 244l-.937 1.875c-1.309 2.616-2.839 4.238-5.063 6.125h-3l-.852 1.766c-1.073 2.087-2.246 4.016-3.523 5.984a76 76 0 0 0-4.687 8.5c-1.55 3.173-3.097 5.55-5.938 7.75h-3c.984-2.195 1.779-3.797 3.563-5.437 1.644-1.5 1.644-1.5 1.808-3.868.756-3.24 2.007-4.835 4.129-7.382l2.164-2.61a446 446 0 0 1 9.453-10.574c2.018-2.185 2.018-2.185 3.883-5.129h2l.66-1.676c1.766-3.062 4.165-5.189 6.778-7.512l1.618-1.458c6.99-6.248 14.195-12.144 21.819-17.604 3.736-2.68 6.952-5.41 10.125-8.75 2.972-2.699 5.983-5.351 9-8l2 1 3-1 1.188-2.187c2.537-3.937 5.998-6.176 9.812-8.813l2 1-3 3q3.928-1.955 7.82-3.98l4.305-2.208 2.207-1.154c1.86-.947 3.762-1.81 5.668-2.658l2 1c2.197-.379 4.118-1.047 6.188-1.875 3.879-1.552 7.841-2.827 11.812-4.125l-4-1c.563-1.812.563-1.812 2-4 5.128-2.432 10.452-4.275 15.813-6.125 5.183-1.719 5.183-1.719 10.187-3.875l3.688-.312c5.502-.556 10.673-2.042 15.98-3.555 11.177-3.025 22.485-4.854 33.957-6.32l4.043-.538C311.428 147 311.428 147 316 147"></path><path fill="#1b0808" d="M349 223c6.223 1.067 10.912 3.214 16 7v2h2v2l3 1v2l1.688.813c2.512 1.29 4.901 2.717 7.312 4.187l2.75 1.563C384 245 384 245 385 247l1.89.402c2.11.598 2.11.598 3.532 2.102 3.67 5.69 6.657 11.595 9.605 17.677 2.188 4.447 4.592 8.348 7.715 12.214 1.861 2.375 3.152 4.807 4.258 7.605l-1 3h-1v6h3c1.178 2.357 1.044 3.526.879 6.133l-.147 2.441-.17 2.551-.158 2.574q-.196 3.15-.404 6.301h-1l-.148-2.117-.227-2.758-.21-2.742c-.21-2.562-.21-2.562-2.415-4.383v12c-2.51-2.51-2.52-4.033-3.062-7.5-.567-3.88-.567-3.88-1.938-7.5h-2l-.67-2.26a3180 3180 0 0 0-3.08-10.24l-1.055-3.555c-3.534-11.65-8.306-19.828-15.904-29.303-1.212-1.542-2.37-3.126-3.521-4.712-7.609-10.172-16.855-13.633-28.79-17.055a85 85 0 0 1-7.418-2.562c-3.233-1.192-6.153-1.887-9.562-2.313v-3h8v-2l10 1z"></path><path fill="#29292a" d="M177 435c6.755-.734 11.185 1.724 17 5v2h5v2l3.117.34c3.771.641 6.55 1.632 10.008 3.223 13.516 6.013 27.162 11.424 41.625 14.648A49 49 0 0 1 262 465v2l1.625-.625c2.375-.375 2.375-.375 5.124.566 3.338 1.087 6.149 1.426 9.646 1.622l3.646.226 3.772.211c7.239.409 14.206.817 21.254 2.577 2.925.64 5.76.65 8.745.61l3.27-.019c2.496-.144 4.521-.54 6.918-1.168a68 68 0 0 1 4.25-.062L334 471l1 3c-7.15 5.482-18.021 4.227-26.625 4.313l-2.984.087c-5.747.05-9.382-.59-14.34-3.445-4.024-1.874-8.425-1.87-12.801-2.142l-2.959-.231c-3.965-.306-7.93-.562-11.9-.781-10.384-.632-20.011-3.657-29.567-7.668-3.734-1.498-7.525-2.81-11.324-4.133-5.417-1.893-10.805-3.812-16.105-6.016a167 167 0 0 0-5.383-2.093c-6.053-2.322-10.51-4.75-15.188-9.243-2.693-2.433-5.614-3.976-8.824-5.648z"></path><path fill="#232324" d="m550 337 1 3c-.969 1.762-.969 1.762-2.5 3.688l-1.707 2.16c-2.2 2.64-4.475 5.208-6.758 7.777-4.027 4.7-7.777 9.624-11.578 14.506a2419 2419 0 0 1-8.612 10.963c-1.929 2.448-3.84 4.9-5.704 7.398-6.98 9.34-15.094 17.035-24.657 23.68-2.24 1.649-4.078 3.313-5.984 5.328-6.1 6.39-13.56 11.165-21.32 15.293-4.704 2.605-9.086 5.754-13.5 8.816-4.446 3.044-8.683 5.323-13.68 7.391a419 419 0 0 0-8.254 4.695c-2.944 1.4-5.523 1.917-8.746 2.305v2q-1.903.758-3.812 1.5l-2.145.844C410 459 410 459 407 459v2l-6 1 1-3a112 112 0 0 1 7.875-3.812q2.349-1.067 4.695-2.141l2.314-1.057c3.576-1.673 7.011-3.57 10.448-5.51 1.912-1.06 3.85-2.073 5.805-3.054 7.301-3.707 13.022-7.911 19.125-13.262 2.497-1.973 4.373-3.059 7.363-4.039 3.434-.747 3.434-.747 4.625-3.125l.75-2c2-1.75 2-1.75 4-3h2v-2l2.14-.719c3.356-1.503 5.787-3.431 8.61-5.781l2.922-2.406c2.372-1.876 2.372-1.876 3.328-4.094h3v-2h2l.688-1.687c1.691-2.982 3.774-5.023 6.312-7.313l3-1 .863-1.734c1.569-3.126 3.814-5.092 6.325-7.516 6.483-6.35 12.333-12.849 17.55-20.281L529 360h2l.813-1.812c1.186-2.186 2.283-3.601 4.187-5.188h2l.688-2.687c1.503-3.795 3.227-5.68 6.312-8.313l3-1c1.209-2 1.209-2 2-4"></path><path fill="#180c0c" d="M237 270h2c.125 6.625.125 6.625-1 10l4-1-.875 1.563c-1.413 3.061-2.214 6.193-3.125 9.437l-1.044 2.222c-1.241 3.607-1.261 7.02-1.257 10.79l-.013 2.328a784 784 0 0 0-.002 4.869c.003 2.453-.02 4.906-.045 7.36-.051 11.916 1.75 21.02 7.361 31.618q1.035 1.989 2.063 3.981l.992 1.92c.95 1.92 1.803 3.862 2.632 5.838 1.012 2.897 1.012 2.897 2.313 4.074.04 2 .043 4 0 6h-2l-1-2-1 2h-3c-.315-.675-.63-1.35-.953-2.047l-1.297-2.703-1.266-2.672c-1.362-2.644-1.362-2.644-3.527-4.539-2.403-2.504-3.046-4.6-4.02-7.914-1.03-3.353-2.004-6.253-3.625-9.375C222.59 327.663 225.438 299 229 284c1.982-5.12 4.08-10.08 8-14"></path><path fill="#232425" d="M394 159c5.452-.42 10.066.76 15 3 2.25 2.063 2.25 2.063 4 4 1.656.693 3.321 1.365 5 2l1 2c1.666.489 3.334.97 5.013 1.41 3.297.978 6.296 2.488 9.362 4.028l1.902.908c1.617.804 3.176 1.723 4.723 2.654l1 3 1.688-.687c2.312-.313 2.312-.313 5.062 1L450 184v2l1.759.364c3.865 1.097 7.048 3.39 10.428 5.511l2.233 1.355 2.123 1.325 1.938 1.202C470 197 470 197 471 200l5 1v2l2.152.73c3.278 1.462 5.648 3.296 8.41 5.583l2.817 2.3C492 214 492 214 494.047 216.605c2.576 3.159 5.534 4.758 9.027 6.77C505 225 505 225 505.77 227.688L506 230l-4-2v-2l-1.684-.219c-3.188-1.075-4.953-2.969-7.378-5.281-3.541-3.45-3.541-3.45-7.938-5.5l-1 2-1.8-1.687c-7.047-6.488-14.515-12.02-22.34-17.52l-3.048-2.168-2.792-1.96L452 192v-2l-1.547-.277c-3.44-1.014-6.524-2.656-9.703-4.286l-4.348-2.199L432 181q-3.84-1.943-7.687-3.875l-1.926-.974a352 352 0 0 0-12.028-5.737l-2.911-1.34a476 476 0 0 0-5.707-2.574l-2.612-1.203-2.342-1.052C395 163 395 163 394.242 160.856z"></path><path fill="#1a1b1b" d="M316 147v2c-2.305 1.152-4.164 1.378-6.719 1.719l-2.824.386-5.914.79-2.824.386-2.596.346c-2.169.277-2.169.277-4.123 1.373-2.333.04-4.667.043-7 0v2l-1.94.351-8.748 1.587-3.052.552-2.96.537-2.713.492c-2.534.471-5.061.97-7.587 1.481v2c-6.143 2.417-12.272 4.806-18.562 6.813-7.305 2.382-14.391 5.304-21.508 8.187l-2.431.98q-2.644 1.08-5.271 2.196l-2.72 1.137-2.472 1.05L202 184l-2-1c5.016-4.124 9.331-5.924 15.645-7.422C218 175.092 218 175.092 220 174l-4-1c.563-1.812.563-1.812 2-4 5.128-2.432 10.452-4.275 15.813-6.125 5.183-1.719 5.183-1.719 10.187-3.875l3.688-.312c5.502-.556 10.673-2.042 15.98-3.555 11.177-3.025 22.485-4.854 33.957-6.32l4.043-.538C311.428 147 311.428 147 316 147"></path><path fill="#1d1e1f" d="M95 372c4.465.857 7.024 3.401 10.25 6.438l1.68 1.525c1.4 1.3 2.74 2.664 4.07 4.037v2h2a208 208 0 0 1 3.47 3.502c2.903 2.842 6.173 5.232 9.405 7.685l2.236 1.71a238 238 0 0 0 17.33 11.944c4.455 2.846 4.455 2.846 5.559 6.159l2.125.188c3.902 1.102 5.818 3.154 8.875 5.812l3 1v2l2.438.375L170 427l1 2c1.979.727 3.98 1.398 6 2v2h-3v2c-6.299-1.492-10.866-5.26-16-9q-2.654-1.848-5.312-3.687c-2.538-1.771-4.974-3.546-7.375-5.5-2.325-1.823-4.755-3.178-7.333-4.606-3.892-2.373-7.625-5.119-10.98-8.207v-2l-2.219-.258c-3.346-.893-4.8-2.231-7.281-4.617-2.23-2.128-4.241-3.97-6.89-5.555-3.251-1.956-6.037-4.308-8.86-6.82l-1.64-1.371c-3.015-2.69-4.08-4.248-4.97-8.238z"></path><path fill="#2d2e2f" d="M245 464q3.188.463 6.375.938l3.586.527C258 466 258 466 260 467c2.879.274 5.744.497 8.629.684l5.326.373q4.192.286 8.386.565 4.05.274 8.1.562l2.492.158a81.7 81.7 0 0 1 14.084 2.227c2.945.64 5.791.658 8.796.618l3.269-.019c2.496-.144 4.521-.54 6.918-1.168a68 68 0 0 1 4.25-.062L334 471l1 3c-7.15 5.482-18.021 4.227-26.625 4.313l-2.984.087c-5.747.05-9.382-.59-14.34-3.445-4.024-1.874-8.425-1.87-12.801-2.142l-2.95-.23a854 854 0 0 0-12.05-.817c-6.308-.427-12.402-1.204-18.25-3.766l-1-2z"></path><path fill="#1c1d1e" d="M505 353c0 3 0 3-1 6l3-2c-1.571 3.857-4.05 6.107-7 9q-1.476 1.504-2.945 3.016C488 378.255 478.41 386.314 468 394q-3.032 2.28-6.062 4.563A535 535 0 0 1 449 408l-2-1 2.5-2.25L452 402v-4c2.047-1.781 2.047-1.781 4.75-3.5 2.668-1.716 5-3.24 7.203-5.531C466 387 466 387 468.84 385.586c3.747-1.88 6.585-4.213 9.723-6.961l1.813-1.565c5.083-4.449 9.866-9.169 14.536-14.046 1.328-1.372 2.704-2.698 4.088-4.014h2v-2h2z"></path><path fill="#5c5d5d" d="m370 187 1.766.367c6.72 1.374 13.463 2.54 20.234 3.633v2l1.977.148c4.956.424 9.353 1.009 14.023 2.852l-1 3h3v-4l6-1 1 3c3.054.93 3.054.93 6.688 1.5 4.957.88 8.895 2.058 13.312 4.5v2l2.375-.312c5.228.45 9.06 2.854 13.625 5.312l3.188 1.375c3.87 2.236 6.989 5.158 9.812 8.625v2c-2.584-.157-4.456-.546-6.469-2.227l-1.594-1.523c-3.937-3.616-8.314-5.287-13.265-7.172C442 210 442 210 439 208a67 67 0 0 0-3.937-1.375l-2.38-.766L430 205q-3.188-1.059-6.375-2.125l-3.023-1.008L415 200l4 2-1 3q-3.877-1.337-7.75-2.687l-2.37-.826c-4.319-1.524-8.516-3.163-12.692-5.05-8.353-3.607-17.35-5.398-26.188-7.437z"></path><path fill="#696969" d="M386 201c6.97.419 13.072 1.674 19.625 4.063l2.603.928c7.607 2.794 14.79 6.235 21.934 10.042 3.252 1.711 6.547 3.333 9.838 4.967-2.706 2.958-2.706 2.958-5.352 3.332-3.06-.384-5.252-1.299-8.023-2.644l-2.922-1.387L421 219c-3.835-1.72-7.626-3.224-11.625-4.5-2.613-.842-4.575-1.622-6.937-3.062-3.363-1.983-6.631-2.6-10.438-3.438v-2l-1.734.559c-3.712.723-6.664-.538-10.266-1.559 2.647-1.46 3.894-2 7-2z"></path><path fill="#e8e8e9" d="m131 407 1.758 1.207c3.396 2.304 6.661 4.514 10.367 6.293 2.481 1.295 4.02 2.414 6.063 4.25C156.55 425.302 165.55 429.996 174 435v-2l4-1 2 3h-3v2l2 1-1 2c-7.705-1.767-15.842-4.943-22-10v-2l-3.375-.75L149 426a179 179 0 0 1-2-4c-3.03-.658-3.03-.658-6-1l-1-2-1.75-.875c-2.765-1.382-4.943-3.075-7.25-5.125v-2h-2v-3z"></path><path fill="#9d9c9c" d="m219 169-3 4h5c-2.47 2.984-4.65 3.643-8.375 4.5-4.053 1.007-7.097 2.224-10.625 4.5l-2-1c-3.012.497-5.435 1.628-8.11 3.066-1.13.605-1.13.605-2.285 1.221l-2.355 1.275-2.402 1.288Q181.92 189.419 179 191l-1-2 5-5 1.438-1.562c6.3-5.797 26.593-17.423 34.562-13.438"></path><path fill="#2e2f30" d="M83 346c3.76 1.217 6.35 2.964 9.309 5.566 2.595 2.2 5.38 4.134 8.152 6.102L102 359v2h2v2h2v2l1.688.688c2.992 1.698 5.047 3.733 7.312 6.312v3l2 1a84 84 0 0 1 3.063 3.438l1.597 1.87C123 383 123 383 124 385c-4.457-1.44-7.166-3.686-10.562-6.875l-1.566-1.46c-4.298-4.039-8.429-8.237-12.561-12.444-3.598-3.618-7.358-6.808-11.471-9.819-1.824-1.39-3.405-2.61-4.84-4.402z"></path><path fill="#262628" d="M461 428c-.25 1.82-.25 1.82-1 4-1.75 1.492-1.75 1.492-4 2.875l-2.46 1.543L451 438q-2.316 1.59-4.625 3.188c-3.655 2.438-7.307 4.129-11.375 5.812a419 419 0 0 0-8.254 4.695c-2.944 1.4-5.523 1.917-8.746 2.305v2q-1.903.758-3.812 1.5l-2.145.844C410 459 410 459 407 459v2l-6 1 1-3a112 112 0 0 1 7.875-3.812q2.349-1.067 4.695-2.141l2.314-1.057c4.495-2.103 8.789-4.566 13.116-6.99q3.465-1.881 6.938-3.75c1.59-.859 1.59-.859 3.214-1.734L443 438l2.254-1.266L447 436l2 1 .75-1.828c1.456-2.53 2.761-3.44 5.25-4.922l2.125-1.297C459 428 459 428 461 428"></path><path fill="#414141" d="m466 199 2.75 1c3.32 1.196 3.32 1.196 7.25 1v2l2.152.73c3.278 1.462 5.648 3.296 8.41 5.583l2.817 2.3C492 214 492 214 494.047 216.605c2.576 3.159 5.534 4.758 9.027 6.77C505 225 505 225 505.77 227.688L506 230l-4-2v-2l-1.684-.219c-3.188-1.075-4.953-2.969-7.378-5.281-3.541-3.45-3.541-3.45-7.938-5.5l-1 2-1.836-1.723c-5.747-5.296-11.647-9.965-18.164-14.277z"></path><path fill="#919191" d="M214 427a324 324 0 0 1 17.422 6.23c2.664.796 4.814.914 7.578.77l-4-2c1.813-.625 1.813-.625 4-1l3 2v2l5 1v-2q4.906.965 9.813 1.938l2.814.552 2.705.537 2.491.492C267 438 267 438 270 439v4l-2.082-.254-2.73-.308-2.708-.317c-2.614-.278-2.614-.278-5.48.879a100 100 0 0 1-5 0v-3l-2.687.25c-9.114-.055-18.229-4.506-26.563-7.875l-2.277-.912c-1.848-.767-3.664-1.609-5.473-2.463z"></path><path fill="#303031" d="M295 470q2.376.214 4.75.438c.882.08 1.763.162 2.672.246 2.578.316 2.578.316 4.5.843 2.88.655 5.628.605 8.578.598l3.406.008c2.597-.112 4.613-.471 7.094-1.133a68 68 0 0 1 4.25-.062L334 471l1 3c-7.348 5.633-18.335 4.135-27.125 4.063l-3.187-.014q-3.844-.018-7.688-.049v-1l5-1-1.5-1.375L299 473v-2z"></path><path fill="#666" d="M309 189v2l-13 2 7 1v1c-7.39.147-14.644-.292-22-1v-2l-2.937 1.375c-3.669 1.59-7.326 2.439-11.243 3.195-1.829.264-1.829.264-2.82 1.43-1.408.33-2.827.613-4.25.875-5.344 1.009-10.597 2.297-15.867 3.637-2.766.468-4.28.425-6.883-.512 3.088-1.765 4.233-2 8-2v-2l1.871-.113c5.173-.402 9.65-1.246 14.524-2.989 8.616-2.97 16.938-5.366 26.125-4.972 2.42.072 4.645-.112 7.043-.426 4.818-.62 9.586-.591 14.437-.5"></path><path fill="#262627" d="M158 409c5.154.49 8.559 3.158 12.75 5.938 7.507 4.793 15.225 8.408 23.5 11.687l3.245 1.289c5.766 2.234 5.766 2.234 11.781 3.58L212 432l1 2-4-1 1 3c-15.05-3.954-29.866-10.103-43-18.437l-2.425-1.54c-5.434-3.599-5.434-3.599-6.575-7.023"></path><path fill="#2e2f30" d="M394 159c5.452-.42 10.066.76 15 3 2.25 2.063 2.25 2.063 4 4 1.656.693 3.321 1.365 5 2l1 2c2.32.714 4.655 1.375 7 2 2.875.875 2.875.875 5 2 .633 2.07.633 2.07 1 4-9.013-1.866-16.927-4.918-25.187-8.937l-3.424-1.592-3.244-1.56-2.927-1.403C395 163 395 163 394.178 160.818z"></path><path fill="#333334" d="m514 246 5 1 1 3 1.75.813c3.342 1.763 4.985 4.167 7.25 7.187v2h2a124 124 0 0 1 4 6c2.637 4.095 2.637 4.095 5.75 7.813 2.012 3.52 1.479 7.224 1.25 11.187-1.875-1.062-1.875-1.062-4-3l-.855-3.234c-1.254-4.124-2.927-6.583-5.582-9.954l-2.372-3.042a1655 1655 0 0 0-3.976-5.008C524 259 524 259 524 257h-2c-1.691-1.898-1.691-1.898-3.562-4.375l-1.88-2.46C515 248 515 248 514 246"></path><path fill="#272728" d="m122 233 3 1c-1.375 2-1.375 2-3 4h-2l-.812 1.875C118 242 118 242 115 244l-.937 1.875c-1.309 2.616-2.839 4.238-5.063 6.125h-3l-.852 1.766c-1.073 2.087-2.246 4.016-3.523 5.984a76 76 0 0 0-4.687 8.5c-1.55 3.173-3.097 5.55-5.938 7.75h-3c.984-2.195 1.779-3.797 3.563-5.437 1.644-1.5 1.644-1.5 1.808-3.868.756-3.24 2.007-4.835 4.129-7.382l2.164-2.61a446 446 0 0 1 9.453-10.574c2.018-2.185 2.018-2.185 3.883-5.129h2l.688-1.75c1.679-2.879 3.54-4.424 6.312-6.25"></path><path fill="#1b1d1e" d="M361 183c7.225-.447 12.602-.085 19.184 2.926 3.475 1.325 6.977 1.96 10.628 2.574 7.304 1.236 14.158 3.129 21.188 5.5l-2 5h-3v-2q-2.343-.722-4.687-1.437l-2.637-.81c-2.546-.716-5.076-1.27-7.676-1.753v-2l-2.273-.148c-5.971-.437-11.677-1.169-17.524-2.442-2.76-.514-5.405-.557-8.203-.41l3-3-6-1z"></path><path fill="#919190" d="m393 442 2 1-2 2h5l-1.937.875c-2.215.953-2.215.953-3.063 3.125-1.96.563-1.96.563-4.375 1-3.3.602-4.74 1.076-7.625 3-2.262.195-2.262.195-4.687.125l-2.45-.055L372 453v2h-8v-2l-4-1 2.063-.48a286 286 0 0 0 18.375-5.082l2.04-.636c2.849-.901 5.62-1.844 8.37-3.017z"></path><path fill="#363839" d="M146 416c6.925.917 10.929 2.176 16 7l3 1v2l2.438.375L170 427l1 2c1.979.727 3.98 1.398 6 2v2h-3v2c-6.302-1.493-10.86-5.265-16-9q-3.98-2.719-7.969-5.422C148 419 148 419 146 416"></path><path fill="#c5c5c5" d="M201 185c-1 3-1 3-2.934 4.395l-2.504 1.417-2.722 1.57L190 194q-2.693 1.586-5.375 3.188l-2.398 1.417c-2.252 1.345-2.252 1.345-4.22 3.028-2.358 1.606-3.932 1.847-6.757 2.054l-2.422.2L167 204v-2l2.344-1.137c5.363-2.635 10.557-5.324 15.578-8.562 2.587-1.62 5.226-3.124 7.89-4.613l2.77-1.551C198 185 198 185 201 185"></path><path fill="#2d2e2e" d="m550 337 1 3c-.969 1.762-.969 1.762-2.5 3.688l-1.703 2.156c-2.207 2.648-4.491 5.22-6.785 7.793-4.214 4.95-8.087 10.182-12.012 15.363l-3-2c.75-2.375.75-2.375 2-5a90 90 0 0 1 4-2c1.092-1.933 1.092-1.933 2-4 1.5-1.75 1.5-1.75 3-3h2l.688-2.687c1.503-3.795 3.227-5.68 6.312-8.313l3-1c1.209-2 1.209-2 2-4"></path><path fill="#d1d2d2" d="M93 323c0 3.441-.705 6.34-1.5 9.688l-.844 3.574L90 339l-4-1c.306 3.567.894 4.886 3.375 7.563L92 348a97 97 0 0 1 3 4l-1 2-11-8-1 3-2-1c1.415-5.235 3.915-9.671 6.543-14.371a141 141 0 0 0 3.207-6.192C91 325 91 325 93 323"></path><path fill="#2a2b2c" d="M100 335h3c1.727 2.203 1.727 2.203 3.625 5.25 4.163 6.5 8.681 12.622 13.375 18.75-2 1-2 1-4.234.578-4.176-2.382-6.332-5.913-9.016-9.828l-1.64-2.277c-2.88-4.125-4.814-7.305-5.11-12.473"></path><path fill="#1f2021" d="M237 270h2c.446 5.348-.402 8.457-2.988 13.14-1.134 1.978-1.134 1.978-2.075 4.735C233 290 233 290 230 292l-2 3c.035-8.841 2.434-15.455 7-23z"></path><path fill="#6a6a6a" d="m469 390 2 1a202 202 0 0 1-14.937 11.875l-2.073 1.508A2364 2364 0 0 1 449 408l-2-1 2.5-2.25L452 402v-4c2.23-1.922 2.23-1.922 5.188-3.75l2.917-1.86c2.985-1.433 4.65-1.598 7.895-1.39z"></path><path fill="#272829" d="M95 372c4.484.856 7.027 3.44 10.25 6.5l1.68 1.55c1.382 1.29 2.729 2.617 4.07 3.95v1l-7 2c-7.48-6.56-7.48-6.56-8.754-10.09C95 375 95 375 95 372"></path><path fill="#3a3a3a" d="M481 208c4.147.237 6.534 1.902 9.61 4.613C492 214 492 214 493.811 216.438c2.688 3.147 5.697 4.883 9.262 6.937C505 225 505 225 505.77 227.688L506 230l-4-2v-2l-1.68-.219c-3.2-1.077-5-2.974-7.445-5.281-3.183-3.114-3.183-3.114-6.875-5.5v-2l-3-1v-2l-3-1z"></path><path fill="#1a1a1b" d="M245 464q3.188.463 6.375.938l3.586.527C258 466 258 466 260 467c1.537.225 3.08.408 4.625.563l2.477.253L269 468l1 3c-8.643 2.245-18-.55-26-4z"></path><path fill="#282929" d="M129 403c3.31-.36 4.786-.128 7.684 1.61l2.754 2.14c4.52 3.462 4.52 3.462 9.25 6.625L151 415v2c-8.401-1-15.668-5.494-22-11z"></path><path fill="#474848" d="M444 224c4.495 1.59 8.315 3.89 12.313 6.438l1.955 1.197c1.633 1.039 3.19 2.195 4.732 3.365v3l3 2-3 1c-2.517-1.073-4.668-2.548-7-4v-3l-2.187-.375c-2.77-.615-5.21-1.51-7.813-2.625l1-2h3l-6-2z"></path><path fill="#e0e1e0" d="M393 203c5.061-.315 9.176.783 13.875 2.5l2.213.792c7.95 2.938 15.434 6.743 22.912 10.708-3 1-3 1-5.996.04l-3.442-1.415c-4.291-1.793-4.291-1.793-8.722-3.164-2.147-.538-3.876-1.444-5.84-2.461a245 245 0 0 0-4.937-2.062l-2.528-1.036c-2.503-.89-4.92-1.448-7.535-1.902z"></path><path fill="#252627" d="m429 429 1 3c-5.945 3.192-11.385 5.631-18 7q-2.002.491-4 1c.438-2.75.438-2.75 2-6 4.234-2.734 7.963-4 13-4v2l6-1z"></path><path fill="#1b1b1b" d="m386 201 10 1-3 1v2l3.063.375c3.816.606 7.252 1.497 10.937 2.625v2c-5.713 1.611-9.687.09-15-2v-2l-1.734.559c-3.712.723-6.664-.538-10.266-1.559 2.647-1.46 3.894-2 7-2z"></path><path fill="#c1c3c2" d="m370 187 1.766.367c6.72 1.374 13.463 2.54 20.234 3.633v2l2.047.148 2.703.227 2.672.21c2.569.414 4.336 1.127 6.578 2.415v2c-6.333-.422-11.61-1.77-17.582-3.879-6.367-2.088-12.903-3.567-19.418-5.121z"></path><path fill="#28292a" d="M177 435c6.579-.715 11.519 1.359 17 5 1.86 1.984 1.86 1.984 3 4l-1 3-1.691-.848q-2.354-1.173-4.711-2.336c-9.747-4.82-9.747-4.82-12.598-6.816z"></path><path fill="#202122" d="M429 447c-.254 1.89-.254 1.89-1 4-1.777 1.047-1.777 1.047-3.937 1.75l-2.153.734C420 454 420 454 418 454v2q-1.903.758-3.812 1.5l-2.145.844C410 459 410 459 407 459v2l-6 1c1-3 1-3 2.563-4.011l2.007-.891 2.22-1.01 2.335-1.026q2.256-1.008 4.508-2.027l2.223-1.003c2.077-1 4.034-2.105 6.011-3.286C426 447 426 447 429 447"></path><path fill="#ddd" d="M172 414c3.618 1.39 7.05 2.987 10.5 4.75 12.46 6.312 12.46 6.312 25.5 11.25v2c-6.774-1.777-13.169-4.19-19.625-6.875l-2.421-.992c-5.326-2.25-10.147-4.923-14.954-8.133z"></path><path fill="#828282" d="m249 204 1 2c-17.856 6.335-17.856 6.335-26 9v-2l-4 1c1.587-1.847 2.619-2.886 4.98-3.59.729-.115 1.457-.23 2.208-.347 4.118-.793 7.415-2.16 11.085-4.16 3.661-1.914 6.67-1.993 10.727-1.903"></path><path fill="#28292a" d="M195 442h4v2l7 1-1 4h-2v2c-5.543-.84-10.347-2.898-15-6v-2c2.972 1.125 5.334 2.223 8 4z"></path><path fill="#323231" d="M446 208c5.75.75 5.75.75 8 3l2.188.688c4.047 1.888 6.993 4.867 9.812 8.312v2c-4.717-.286-6.849-2.47-10.156-5.516-1.875-1.51-3.474-2.28-5.719-3.109L447 212c-.937-2.187-.937-2.187-1-4"></path><path fill="#c2c3c3" d="M330 451v2c-1.156.09-1.156.09-2.336.184l-3.039.253-3.023.247c-2.581.166-2.581.166-4.602 1.316-6.403.367-12.67-.045-19-1v-2c10.685-.678 21.29-1.155 32-1"></path><path fill="#dcdcdc" d="M411 198c7.083.746 13.37 3.832 19.813 6.688 2.776 1.143 5.23 1.864 8.187 2.312l-2 5-1-2-3.113-.383c-4.448-.706-7.286-2.187-11.074-4.492l-1.827-1.066c-3.137-1.853-6.126-3.802-8.986-6.059"></path><path fill="#4c4d4d" d="M249 435c7.156.702 14.019 2.308 21 4v4c-5.875-.875-5.875-.875-7-2-2.522-.4-5.03-.75-7.562-1.062l-2.155-.276q-2.64-.335-5.283-.662z"></path><path fill="#2d2d2d" d="M215 424c5.88 1.62 11.415 3.516 16.95 6.082 2.622 1.174 5.305 2.073 8.05 2.918l-1 2c-5.508-.57-10.127-2.003-15.25-4.062-5.206-2.192-5.206-2.192-10.75-2.938v-2z"></path><path fill="#c2c3c2" d="M506 357c0 3 0 3-1.5 5.25-2.642 2.906-5.454 5.393-8.437 7.938-1.889 1.659-3.633 3.377-5.375 5.187-5.696 5.774-11.905 11.97-19.688 14.625a256 256 0 0 1 10.313-9.875l2.925-2.652a400 400 0 0 1 6.762-5.91c5.272-4.57 10.111-9.593 15-14.563"></path><path fill="#5a5c5c" d="M426 200c4.449-.393 7.142.847 11 3v2l2.75-.187c3.54.204 4.7.833 7.25 3.187l-2 3-2.437-1.312c-3.465-1.642-6.856-2.824-10.512-3.942C430 205 430 205 427 203z"></path><path fill="#757474" d="M272 194c-5.088 2.827-9.48 4.516-15.207 5.492-4.354.792-8.623 1.93-12.91 3.02-2.766.468-4.28.425-6.883-.512 3.088-1.765 4.233-2 8-2v-2l1.871-.113c5.392-.419 10.072-1.355 15.156-3.184 3.81-1.358 6.105-1.992 9.973-.703"></path><path fill="#2a2b2b" d="M316 147v2c-2.255 1.128-4.046 1.373-6.543 1.719l-2.756.386-2.889.395-2.83.395q-2.733.38-5.468.757-4.76.662-9.514 1.348v-2l-4-1q6.298-.86 12.598-1.709 2.142-.29 4.283-.582 3.082-.42 6.166-.834l3.745-.508C312 147 312 147 316 147"></path><path fill="#1a1a1b" d="M390 189c7.75.525 14.645 2.556 22 5l-2 5h-3v-2q-2.343-.722-4.687-1.437l-2.637-.81c-2.546-.716-5.076-1.27-7.676-1.753v-2h-2z"></path><path fill="#202123" d="m388 446 1 2c-1 2-1 2-4 3.625-4.308 1.782-8.41 1.656-13 1.375v2h-8l1-2c7.51-2.8 15.286-4.838 23-7"></path><path fill="#3d3c3d" d="m137 220 1 2-3 3 2 2c-.375 2.125-.375 2.125-1 4l-4 1v-2l-6 4-3-2c4.381-4.581 8.548-8.73 14-12"></path><path fill="#7f7e7f" d="M241 460c6.761.554 13.693 1.365 20 4l1 3 4-1 1 2c-4.67.183-7.735-.215-12-2-3.317-.758-6.653-1.39-10-2v-3h-2l-1 2z"></path><path fill="#4f4f4f" d="m321 180-1 2c-2.871.344-2.871.344-6.437.5a94 94 0 0 0-6.563.5l-2 2c-3.625.125-3.625.125-7 0v-2l-4-2c9.33-2.102 17.565-1.954 27-1"></path><path fill="#353637" d="M161 425q2.221.423 4.438.875l2.496.492L170 427l1 2c1.979.727 3.98 1.398 6 2v2h-3v2c-4.915-1.319-9.364-3.375-13-7z"></path><path fill="#272828" d="M457 191c3.93.565 6.534 1.714 9.813 3.938l2.394 1.59L471 198v2h3l-1 3-1-2c-2.03-.315-2.03-.315-4.375-.375-2.457-.207-2.457-.207-4.625-.625-2.062-2.062-2.062-2.062-3-4l1-2-4-1z"></path><path fill="#8a8a8b" d="M289 441v2l3.125-.562c3.636-.411 6.33-.216 9.875.562v2c-9.391.1-18.657.13-28-1v-2c4.96-1.323 9.911-1.089 15-1"></path><path fill="#f0f0f0" d="m206 177-28 14v-2c3.749-3.624 8.13-5.657 12.793-7.852 2.332-1.072 2.332-1.072 4.207-3.148 4.122-1.45 6.817-2.299 11-1"></path><path fill="#2d2e2f" d="M414 168c2.023.488 2.023.488 4.375 1.313l2.336.8c2.177.843 4.207 1.837 6.289 2.887 1.324.368 2.656.712 4 1l1 4c-7.208-1.586-13.54-3.397-20-7v-2z"></path><path fill="#3e0f14" d="m263 239 2 1-1.529 1.513a5517 5517 0 0 0-6.846 6.8l-2.406 2.38-2.305 2.295-2.126 2.11c-1.958 1.978-1.958 1.978-3.788 4.902l-3-1c4.473-6.457 9.461-11.317 15.645-16.152 2.373-1.786 2.373-1.786 4.355-3.848"></path><path fill="#19191a" d="M461 428c-.23 1.809-.23 1.809-1 4-1.926 1.598-1.926 1.598-4.312 3.063-2.373 1.478-4.647 2.905-6.84 4.64L447 441c-2.25-.312-2.25-.312-4-1 1.313-1.5 1.313-1.5 3-3h3l.75-1.828c1.456-2.53 2.761-3.44 5.25-4.922l2.125-1.297C459 428 459 428 461 428"></path><path fill="#9e676b" d="M228 322h1v11l3 1c1.405 6.12 2.233 11.717 2 18-5.322-10.596-7.789-18.11-6-30"></path><path fill="#767779" d="M295 470c6.524.258 10.878.822 16 5-1.145 1.488-1.145 1.488-3 3-2.7.293-2.7.293-5.687.188l-3.012-.083L297 478v-1l5-1-1.5-1.375L299 473v-2z"></path><path fill="#2d2e2e" d="m193 427 1.871.586c5.109 1.57 10.156 2.916 15.414 3.887L212 432l1 2-4-1 1 3c-6.615-1.654-12.746-4.31-19-7z"></path><path fill="#302f31" d="M507 387h4l1 3-10 10-2-1c1.152-2.468 2.048-4.048 4-6l-4 1c1-3 1-3 3.5-4.625L506 388z"></path><path fill="#434344" d="m118 278 1 3c-1.606 3.211-3.489 5.489-6 8l-1 3c-1.876 1.845-3.927 3.368-6 5 1.37-7.88 6.454-13.454 12-19"></path><path fill="#767776" d="m460 404 2 1c-3.523 3.76-7.001 6.486-11.437 9.188l-3.31 2.042c-3.05 1.66-5.929 2.792-9.253 3.77v2h-5v-2l2.75-1.062c4.797-2.025 9.148-4.797 13.578-7.512C452 410 452 410 455 410l1-3c2.063-1.687 2.063-1.687 4-3"></path><path fill="#292929" d="M533 269c3.03.926 4.935 1.942 7.313 4.063 2.314 4.028 2.043 7.398 1.687 11.937-1.875-1.062-1.875-1.062-4-3a172 172 0 0 1-2-7 70 70 0 0 0-3-4z"></path><path fill="#a2a3a3" d="m177 432 3 3h-3v2l2 1-1 2c-3.183-.72-6.15-1.748-9.187-2.937l-2.668-1.028C164 435 164 435 163 433c3.683.6 7.345 1.248 11 2v-2z"></path><path fill="#242626" d="M100 335h3c1.64 1.828 1.64 1.828 3.25 4.25l1.64 2.39c1.11 2.36 1.11 2.36.782 4.657L108 348c-2.298-.738-3.709-1.61-5.156-3.55-2.135-3.56-2.844-5.118-2.844-9.45"></path><path fill="#666566" d="M195 215c-1 3-1 3-2.89 4.316l-2.36 1.246-2.45 1.297c-2.39 1.185-4.785 2.248-7.3 3.141l-1-3c10.138-7 10.138-7 16-7"></path><path fill="#adaead" d="M309 189v2c-8.024 1.184-15.865 2.285-24 2l1-2c7.546-1.844 15.26-2.314 23-2"></path><path fill="#9d9d9d" d="M215 173v3c-4.934 2.259-9.804 4.401-15 6 .75-1.937.75-1.937 2-4a93 93 0 0 1 4-1l1-3c2.96-2.041 4.638-2.2 8-1"></path><path fill="#ddd" d="M276 444c7.215-.355 13.124.84 20 3v1c-6.766.114-13.288-.12-20-1z"></path><path fill="#3a3a3b" d="M505 353c0 3.85-1.02 5.7-3 9-3.749 3.665-6.928 5.672-12 7q1.404-1.659 2.813-3.312l1.582-1.864c2.942-3.344 2.942-3.344 4.605-4.824h2v-2h2z"></path><path fill="#27292a" d="M544 324c-.634 3.498-2.052 5.84-4.062 8.75l-1.66 2.422L537 337l-3-1c1.87-7.62 1.87-7.62 5-10 3-2 3-2 5-2"></path><path fill="#797979" d="M428 218c5.023-.295 7.895.015 12 3-1.187 1.5-1.187 1.5-3 3-3.617.464-5.886-.155-9-2z"></path><path fill="#393a39" d="m246 192 2 1v4l-1.977.113c-5.412.407-9.2 1.235-14.023 3.887l-2-1c2.463-3.695 4.983-4.387 9-5.75l1.945-.707c1.663-.581 3.358-1.069 5.055-1.543"></path><path fill="#5b5c5c" d="m219 169-3 4h5c-1.974 2.523-2.967 2.993-6.187 3.688L212 177l3-1-1-3c-3.375.547-5.082 1.055-8 3l-3-1c12.017-7.991 12.017-7.991 16-6"></path><path fill="#404040" d="M287 444c2.44.087 4.875.194 7.313.313l2.091.068c5.153.274 5.153.274 7.576 2.162L305 448l-1 1c-2.353.073-4.708.084-7.062.063l-3.91-.028L290 449l3-2-6-2z"></path><path fill="#590f14" d="M403 291c2.41 1.87 3.033 3.105 3.95 6.074 1.31 6.415 2.443 12.373 2.05 18.926-2.802-2.802-2.92-5.92-3.562-9.687l-.381-2.108c-.783-4.39-1.45-8.788-2.057-13.205"></path><path fill="#1d1d1d" d="M440 221c3 2 3 2 4 5 3.503 1.716 3.503 1.716 7 3-2.714 1.044-4.014.996-6.875.25-3.142-1.257-6.128-2.68-9.125-4.25z"></path><path fill="#c1c2c1" d="M93 323c0 3.441-.705 6.34-1.5 9.688l-.844 3.574L90 339l-4-1c.75-5.75.75-5.75 3-8l1-2.5c1-2.5 1-2.5 3-4.5"></path><path fill="#5e5e5e" d="M466 199c3.473.96 5.987 1.991 9 4v3h2l-1 2c-5.16-1.922-8.256-3.802-12-8zm8 2 2 1Z"></path><path fill="#1e1e20" d="M293 471h6l.313 1.938L300 475l3 1v1l-3.812.125-2.145.07C295 477 295 477 292 475z"></path><path fill="#7a6969" d="M410 296h3c1.178 2.357 1.044 3.526.879 6.133l-.147 2.441-.17 2.551-.158 2.574q-.196 3.15-.404 6.301h-1l-.184-1.977c-.366-3.824-.747-7.607-1.378-11.398C410 300 410 300 410 296"></path><path fill="#8e8e8e" d="m503 234 6 2 1 5 6 2v2l2 1c-2.125.375-2.125.375-5 0a30.4 30.4 0 0 1-6-6v-2h-2z"></path><path fill="#585a59" d="M354 225c4.508.53 7.42 2.252 11 5v2l2 1c-4.71-.462-8.24-1.014-12-4-.812-2.187-.812-2.187-1-4"></path><path fill="#575858" d="m386 201 10 1-3 1v3c-4.845 1.514-8.26.366-13-1 2.647-1.46 3.894-2 7-2z"></path><path fill="#afb0b0" d="M158 427c4.45.509 6.625 2.144 10 5 1.311.709 2.638 1.395 4 2-3.779 1.26-5.034.48-8.687-.937l-3.012-1.153L158 431z"></path><path fill="#454646" d="m201 418 5 1v2l7 1-2 1v2c-3.719-.507-6.735-1.116-10-3z"></path><path fill="#515252" d="M450 186c3.871.574 6.082 2.487 9 5h-2l1 2 3 1-1 3-8-5 1-4-3-1z"></path><path fill="#747474" d="m550 337 1 3c-1.145 1.973-1.145 1.973-2.812 4.063l-1.645 2.097C545 348 545 348 543 350c-2.125-.375-2.125-.375-4-1a564 564 0 0 1 3.375-4l1.898-2.25L546 341h2z"></path><path fill="#51060c" d="M264 248c-.625 2.813-.625 2.813-2 6-2.875 1.625-2.875 1.625-6 3-2.314 2.062-2.314 2.062-4 4l-2-1a1962 1962 0 0 1 4.875-5.437l1.395-1.565C260.778 248 260.778 248 264 248"></path><path fill="#343536" d="m414 453 2 1v3l-9 2v2l-6 1c1-3 1-3 3.652-4.64l3.286-1.61 3.277-1.64z"></path><path fill="#303031" d="m122 233 3 1c-1.375 2-1.375 2-3 4h-2l-2 4-3-1c1.488-3.787 3.62-5.774 7-8m-9 8 2 1-3 2z"></path><path fill="#555" d="m210 207 2 1c-7.082 6.094-7.082 6.094-11 8l-3-1c2.25-2.5 2.25-2.5 5-5h4v-2z"></path><path fill="#656565" d="m431 175 8 3-3 2-1 2-10-5 4-1 2 1z"></path><path fill="#bbbbba" d="M272 194c-6.378 3.73-11.646 4.73-19 5 3.182-2.73 6.007-3.765 10.063-4.75l3.16-.797C269 193 269 193 272 194"></path><path fill="#6b6c6b" d="m454 397 3 3c-1.502 4.206-4.286 5.739-8 8l-2-1 2.5-2.25L452 402v-4z"></path><path fill="#aa696f" d="M404 275c3.815 3.27 6.406 7.239 8 12l-1 3c-4.392-3.483-5.66-7.744-7-13z"></path><path fill="#6b6b6b" d="M361 183h12l1 5h-10l3-3-6-1z"></path><path fill="#323333" d="M125 367c7.483 6.15 7.483 6.15 10 10-3.196 0-4.341-.338-7-2-1.75-1.875-1.75-1.875-3-4z"></path><path fill="#4e4f4e" d="m514 246 5 1 1 3c2 1.209 2 1.209 4 2l-1 5c-3.595-3.329-6.224-6.99-9-11"></path><path fill="#e0e0e0" d="m178 197 2 1c-1.437 2.438-1.437 2.438-4 5-2.993.732-5.926.928-9 1v-2q2.682-1.294 5.375-2.562l3.023-1.442z"></path><path fill="#545557" d="m420 215 9 2-1 4c-3.375-.547-5.082-1.055-8-3z"></path><path fill="#3e4040" d="m215 424 10 3v4c-1.815-.449-3.627-.91-5.437-1.375l-3.06-.773L214 428l-1-2z"></path><path fill="#929393" d="m478 396 2 2c-3.126 3.394-5.565 5.606-10 7 .385-2.54.701-3.728 2.629-5.484l1.933-1.266 1.942-1.297z"></path><path fill="#d3b8b9" d="M400 340h1c.492 5.904-.686 10.04-4 15l-2 1q.683-2.596 1.375-5.187l.773-2.918c.8-2.717 1.755-5.286 2.852-7.895"></path><path fill="#2a2a2b" d="M446 208c2.813.25 2.813.25 6 1 1.875 2.063 1.875 2.063 3 4-1.687.688-1.687.688-4 1-2.75-1.25-2.75-1.25-5-3z"></path><path fill="#585857" d="m165 196 2 1-1 3-4 1-1 3c-1.876 1.845-3.927 3.368-6 5 .319-3.309.778-4.76 3.066-7.238l2.496-2.075 2.504-2.113z"></path><path fill="#2b2b2b" d="m256 438 14 1v4c-5.875-.875-5.875-.875-7-2a70 70 0 0 0-4.062-.562L255 440z"></path><path fill="#666565" d="M144 419c4.926 2.714 9.55 5.55 14 9v2h-2v-2l-3.187-.687c-3.98-1.125-6.17-3.11-8.813-6.313z"></path><path fill="#393a3a" d="M129 408c3.444 1.448 5.361 3.277 7.75 6.125l1.86 2.195L140 418c-3 0-3 0-6.187-2.375L131 413v-2h-2z"></path><path fill="#908787" d="M238 271h1c.681 6.813-2.344 11.515-6 17-.477-6.525 2.055-11.336 5-17"></path><path fill="#9c565d" d="M384 247c2.293.215 2.293.215 5 1 1.8 2.066 1.8 2.066 3.313 4.563l1.55 2.503L395 257l-1 2-1.172-1.426c-2.758-3.298-5.345-6.029-8.828-8.574z"></path><path fill="#2f3030" d="M390 189q2.22.173 4.438.375c.823.07 1.647.14 2.496.21L399 190l1 2-1 2-7-1v-2h-2z"></path><path fill="#565656" d="m269 468 21 1v1l-15 1v1h-5z"></path><path fill="#969594" d="m246 438 17 2c-3 3-3 3-5.043 3.293L252 443v-3h-5z"></path><path fill="#c9a6ab" d="M351 401c-.687 1.875-.687 1.875-2 4-2.375 1.313-2.375 1.313-5 2-2.164-.457-2.164-.457-4-1 1.074-.845 2.16-1.676 3.25-2.5l1.828-1.406C347 401 347 401 351 401"></path><path fill="#444545" d="m487 243 7 4v5c-4.647-2.446-4.647-2.446-6.312-5.062C487 245 487 245 487 243"></path><path fill="#6f6e6e" d="M444 214c1.813.063 1.813.063 4 1 4.574 4.149 4.574 4.149 6 7-4.308-1.566-8.062-3.683-12-6z"></path><path fill="#e0e1e1" d="M395 194c7.429-.286 7.429-.286 11 2v2c-1.46-.087-2.918-.195-4.375-.312l-2.46-.176L397 197z"></path><path fill="#848485" d="M241 460c1.46.06 2.918.149 4.375.25l2.46.14L250 461c1.29 2.047 1.29 2.047 2 4l-7-1v-3h-2l-1 2z"></path><path fill="#b5b5b5" d="M133 273c0 3.54-.69 4.273-2.812 7l-1.583 2.063A59 59 0 0 1 124 287c.52-4.137 1.673-6.215 4.5-9.25l1.906-2.078c.857-.899 1.716-1.794 2.594-2.672"></path><path fill="#b1afae" d="M133 228c0 3 0 3-1.137 4.57-4.224 4.236-4.224 4.236-7.738 5.305L122 238c1.403-3.446 2.858-4.844 6.063-6.687 2.627-1.45 2.627-1.45 4.937-3.313"></path><path fill="#797979" d="m181 185 2 1c-1.375 1.5-1.375 1.5-3 3h-2l1 3a101 101 0 0 1-6 3l-2-1c3.17-3.26 6.4-6.222 10-9"></path><path fill="#4e4e4e" d="M210 431c1.875 1.5 1.875 1.5 3 3l-4-1 1 3a129 129 0 0 1-7-2l-1-2c2.799-1.4 4.905-1.253 8-1"></path><path fill="#787979" d="m479 416 2 2-10 8-2-1c3.17-3.26 6.4-6.222 10-9"></path><path fill="#222223" d="M462.313 393.313 464 394c-2.25 2.563-2.25 2.563-5 5-2.312-.187-2.312-.187-4-1v-2c4.153-3.115 4.153-3.115 7.313-2.687"></path><path fill="#6f0e18" d="M404 279c3.478 3.147 4.788 6.531 6 11 .188 3.5.188 3.5 0 6-1.773-2.66-2.93-4.996-4.125-7.937l-1.07-2.59C404 283 404 283 404 279"></path><path fill="#e8e8e8" d="M417 211c3.85.604 6.861 1.768 10.313 3.563l2.675 1.378L432 217c-3 1-3 1-5.41.328l-2.652-1.078-2.66-1.047C419 214 419 214 417 211"></path><path fill="#3a3c3d" d="m434 443 2 1c-.625 1.875-.625 1.875-2 4-3.125 1.25-3.125 1.25-6 2l1-3-2-1a136 136 0 0 1 7-3"></path><path fill="#1b1b1c" d="M435 179c2.25-.375 2.25-.375 5 0 2.313 3 2.313 3 4 6-2.763-.523-5.326-1.109-8-2-.687-2.062-.687-2.062-1-4"></path><path fill="#262627" d="M177 435h7l1 5c-2.929-.628-5.361-1.586-8-3z"></path><path fill="#59595b" d="m457 427 3 1-2.152 1.46-2.786 1.915-2.777 1.898c-2.369 1.525-2.369 1.525-3.285 3.727l-3-1c2.342-2.529 4.822-4.734 7.563-6.812l1.753-1.333z"></path><path fill="#aaa" d="M194 425c4.722 1.535 9.359 3.24 14 5v2c-10.558-3.075-10.558-3.075-15-5z"></path><path fill="#1e1f1f" d="M100 335h3l2 3c-.375 2.688-.375 2.688-1 5h-2c-1.765-3.088-2-4.233-2-8"></path><path fill="#d9d9d7" d="m188 182 2 1v2l-12 6v-2c3.091-2.738 6.323-5.112 10-7"></path><path fill="#878686" d="M303 475h8c-1.145 1.488-1.145 1.488-3 3-2.7.293-2.7.293-5.687.188l-3.012-.083L297 478v-1h6z"></path><path fill="#965d65" d="m250 250 1 2c-1.23 2.599-2.275 4.749-4 7-2.25.938-2.25.938-4 1 4.143-7.571 4.143-7.571 7-10"></path><path fill="#666" d="M478 209c2.313.25 2.313.25 5 1 1.813 2.063 1.813 2.063 3 4l-2 3-7-6z"></path><path fill="#3f403f" d="M418 198c6.055 1.27 6.055 1.27 8 2l2 3c-3.47-.458-6.674-.891-10-2z"></path><path fill="#414141" d="M465 194a125 125 0 0 1 6 4v2h3l-1 3-1-2c-1.946-.59-1.946-.59-4-1l-2-1c-.625-2.562-.625-2.562-1-5"></path><path fill="#747474" d="M292 195v1h-7v2l-10 1c4.859-4.859 10.561-4.225 17-4"></path><path fill="#3c3c3c" d="m388 446 1 2-1 2c-2.314.73-4.648 1.401-7 2v-2l-2-1z"></path><path fill="#8b8b8c" d="m429 429 1 3a418 418 0 0 1-3.812 2l-2.145 1.125C422 436 422 436 419 436v-2c3.73-2.034 5.67-3 10-3z"></path><path fill="#393a3a" d="M129 403c2.375-.187 2.375-.187 5 0l2 3-3 3c-2-1.312-2-1.312-4-3z"></path><path fill="#513a3b" d="M281 397q2.19.425 4.375.875l2.46.492C290 399 290 399 292 401l-1 2h-6l2-2-6-3z"></path><path fill="#3f3f3f" d="m229 284 1 3h2l1-2 1 4-1.875 1.313c-2.345 1.684-2.345 1.684-4.125 4.687z"></path><path fill="#888988" d="M444 224c4.776 1.642 8.794 4.265 13 7l-2 1c-1.762-.979-3.522-1.964-5.246-3.008-1.885-1.066-3.615-1.65-5.754-1.992z"></path><path fill="#313132" d="m293 151-2 3c-2.625.188-2.625.188-5 0v-2l-4-1c7.429-1.286 7.429-1.286 11 0"></path><path fill="#626465" d="M195 442h4v2l7 1c-1.875.563-1.875.563-4 1l-2-1-1 2-4-2z"></path><path fill="#9b9b9b" d="m181 194 5 1c-2.135 3.202-3.628 4.273-7 6h-3l1.375-1.812A124 124 0 0 0 181 194"></path><path fill="#4c4b4b" d="m246 192 2 1v4h-6v-2l-2-1c1.977-.73 3.98-1.394 6-2"></path><path fill="#202121" d="m423 173 8 1 1 4-9-2z"></path><path fill="#575857" d="M247 368c2.526 2.363 3.888 3.665 5 7h-2l-1-2-3 2-2-4h3z"></path><path fill="#363637" d="M500 223c2.438.688 2.438.688 5 2 .813 2.625.813 2.625 1 5l-4-2v-2h-2z"></path><path fill="#333435" d="m393 205 7 1-1 3-7-1z"></path><path fill="#696a6a" d="M212 449c3.95.551 7.35 1.39 11 3-1.687 1.125-1.687 1.125-4 2-2.75-.875-2.75-.875-5-2v-2z"></path><path fill="#4e4f4f" d="M544 324c-.25 1.875-.25 1.875-1 4-2.276 1.441-4.433 2.144-7 3 1.469-4.651 1.469-4.651 4-6.312 2-.688 2-.688 4-.688"></path><path fill="#d3d3d3" d="M117 295c0 3.015-.52 4.869-1.5 7.688l-.844 2.449L114 307c-1.043-1.84-1.043-1.84-2-4 .934-3.483 2.28-5.651 5-8"></path><path fill="#671018" d="M401 271c2.5 2.174 3.436 3.73 4 7h-4c-1.125-4.75-1.125-4.75 0-7"></path><path fill="#8e8e90" d="m195 215-1 3c-3.062 1.188-3.062 1.188-6 2v-2l-2-1c3.371-1.498 5.204-2 9-2"></path><path fill="#51504f" d="M246.188 203.813 249 204l1 2c-5.415 2.092-5.415 2.092-8.375 1.625L240 207c2.005-2.673 2.749-2.985 6.188-3.187"></path><path fill="#494949" d="M294 181h9v3l2 1h-7v-2z"></path><path fill="#646363" d="M316 147v2c-3.013 1.507-5.683 1.178-9 1l-2-2c3.735-.575 7.213-1 11-1"></path><path fill="#525252" d="M311 475h4v2h5v1h-12z"></path><path fill="#d3d4d4" d="M178 438c2.867.573 3.861.861 6 3l-1 2c-2.867-.573-3.861-.861-6-3z"></path><path fill="#636464" d="M184 436c5.75 1.75 5.75 1.75 8 4-1.875.563-1.875.563-4 1l-2-1-1 2c-1-4.875-1-4.875-1-6"></path><path fill="#1e1f20" d="m513 381 2 1-.937 1.813c-1.165 2.277-1.165 2.277-2.063 5.187l-4-1c1.293-2.884 2.66-4.872 5-7"></path><path fill="#b29191" d="M410 296h3c1.255 3.766.37 5.372-1 9l-2-1z"></path><path fill="#c4c5c6" d="m122 296 2 3-5 7-1-3c1.073-2.517 2.548-4.668 4-7"></path><path fill="#9b9b9a" d="M466 199c2.063.688 2.063.688 4 2 .75 2.125.75 2.125 1 4-2.884-1.293-4.872-2.66-7-5z"></path><path fill="#5a5a5a" d="M280 183c2.69.176 5.329.618 8 1v1c-4.41 1.102-8.484 1.077-13 1l1.938-.937c1.998-.898 1.998-.898 3.062-2.063"></path><path fill="#707171" d="m448 418 2 1c-2.528 2.799-4.204 4.458-8 5 1.015-2.536 1.685-3.794 4-5.312z"></path><path fill="#8b8c8b" d="M146 416c2.813.688 2.813.688 6 2 1.875 2.625 1.875 2.625 3 5-4.419-1.35-6.343-3.261-9-7"></path><path fill="#813137" d="m230 341 3 1c1.607 3.215 1.057 6.436 1 10l-2-4-1.125-2.062C230 344 230 344 230 341"></path><path fill="#353536" d="m419 213-1 2c-6.152-.586-6.152-.586-8-1l-1-2c4.042-1.347 6.04-.32 10 1"></path><path fill="#2a2a2b" d="m408 193 4 2-2 4h-3v-2l-2-2z"></path><path fill="#3a3b3c" d="m370 451 2 1v3h-8c1-2 1-2 3.438-3.187z"></path><path fill="#909191" d="M188 443c2.972 1.125 5.334 2.223 8 4v2c-2.972-1.125-5.334-2.223-8-4z"></path><path fill="#464645" d="m482 391 3 1a105 105 0 0 1-4 5h-2c.573-2.867.861-3.861 3-6"></path><path fill="#9d9e9e" d="m510 387 2 3-5 4v-4c1.5-1.75 1.5-1.75 3-3"></path><path fill="#230303" d="M402 292c1.414 2.639 2.372 5.071 3 8l-3 1c-1.125-5.625-1.125-5.625 0-9"></path><path fill="#585758" d="m118 278 1 3c-1.437 2.688-1.437 2.688-3 5l-2-4z"></path><path fill="#676868" d="M495 220c2.438.375 2.438.375 5 1l1 2-2 3a91 91 0 0 1-4-4z"></path><path fill="#4d4d4e" d="M490 214h2a125 125 0 0 1 4 6h-4c-2-3-2-3-2-6"></path><path fill="#d0d1d1" d="M408 209h8l2 4-3.875-.312-2.18-.176L410 212z"></path><path fill="#353535" d="M410 199c3.344.557 6.033 1.352 9 3l-1 3c-3.914-1.27-5.79-2.512-8-6"></path><path fill="#c8c9c9" d="M389 191h3v2h5l-1 3-7-2z"></path><path fill="#a0a0a0" d="M198 185h3c-1 3-1 3-4 5l-3-1c1.813-2 1.813-2 4-4"></path><path fill="#676869" d="M443 181c4.75 1.875 4.75 1.875 7 3v2c-2.866-.387-4.592-.648-6.812-2.562L442 182z"></path><path fill="#e3e3e3" d="M258 441q2.22.172 4.438.375c.823.07 1.647.14 2.496.21L267 442l1 2c-7.75-.75-7.75-.75-10-3"></path><path fill="#e9e9ea" d="M163 430c3.083 1.199 6.063 2.477 9 4-3.766 1.255-5.372.37-9-1z"></path><path fill="#363736" d="M543 349c-1.37 3.161-1.99 3.993-5 6l-2-2h2l1-3c2-1 2-1 4-1"></path><path fill="#545556" d="M161 246h2v2c-1.531 1.508-1.531 1.508-3.5 3.125l-1.969 1.633L156 254v-3c2.375-2.687 2.375-2.687 5-5"></path><path fill="#7a7a79" d="M426 200h5l1 2-2 3c-3-2-3-2-4-5"></path><path fill="#ecedec" d="M206 177c-6.75 4-6.75 4-9 4v-3c3.426-1.618 5.38-2.34 9-1"></path><path fill="#504f4f" d="m214 171-3 2-2.5 1.688L206 176l-3-1c3.797-2.826 6.186-4.566 11-4"></path><path fill="#b0b3b1" d="M213.125 172.438c.619.185 1.238.37 1.875.562v3l-5 1v-2l-1-2c2-1 2-1 4.125-.562"></path><path fill="#2f2e2f" d="M100 256h1c.188 2.313.188 2.313 0 5-1.5 1.813-1.5 1.813-3 3-.687-1.75-.687-1.75-1-4 1.375-2.25 1.375-2.25 3-4"></path><path fill="#acacac" d="M503 234c2.938.813 2.938.813 6 2l1 3-3 1v-2h-2z"></path><path fill="#313132" d="m440 221 3 3h-3v2l-5-1z"></path><path fill="#272729" d="M420 215c2.867.573 3.861.861 6 3l-5 1z"></path><path fill="#6e6f6f" d="M407 458v3l-6 1 1-3c3-1 3-1 5-1"></path><path fill="#272828" d="M249 435c1.938.313 1.938.313 4 1l1 3h-6z"></path><path fill="#4d4f50" d="m160 422 5 2-1 2-3-1v2l-3-1z"></path><path fill="#2d2e2d" d="m151 417 5 1v4c-1.937-.812-1.937-.812-4-2z"></path><path fill="#9d9b9c" d="m471 416 3 1a141 141 0 0 1-5 5h-2l2-4h2z"></path><path fill="#373839" d="M469 402c.688 1.813.688 1.813 1 4-1.437 1.75-1.437 1.75-3 3l-3-1z"></path><path fill="#202121" d="M523 253c2 1.313 2 1.313 4 3v3h-3z"></path><path fill="#a7a8a7" d="m111 248 2 1-5 6-2-3h3z"></path><path fill="#3a3938" d="m129 226 1 4c-2.375 1.563-2.375 1.563-5 3l-2-1z"></path><path fill="#4c4c4c" d="M416 214h6l-2 1v3l-5-2z"></path><path fill="#929394" d="m177 432 3 3-6 1v-3z"></path><path fill="#6c6c6a" d="m520 274 3 2v2l3 1v2l-4-2v-2h-2z"></path><path fill="#3c3d3c" d="m152 243 3 2-2 4h-2a100 100 0 0 1 0-5z"></path><path fill="#4c4b4a" d="m134 226 3 1-1 4-4 1z"></path><path fill="#454546" d="m210 207 2 1-4 4-3-1 2-1v-2z"></path><path fill="#363535" d="M474 202a78 78 0 0 1 5 2l1 2-3 1-2-1c-.625-2.062-.625-2.062-1-4"></path><path fill="#3a3938" d="M279 190h6l1 2-5 2v-3z"></path><path fill="#525150" d="m188 180 2 2c-1.812 1.563-1.812 1.563-4 3l-3-1c1.634-1.708 2.87-2.935 5-4"></path><path fill="#2e2f30" d="m186 440 5 1v3l-5-2z"></path><path fill="#383939" d="M207 422h6l-2 1v2h-4z"></path><path fill="#949696" d="m503 394 2 1-3 5-2-1c1.875-3.875 1.875-3.875 3-5"></path><path fill="#353638" d="m488 385 1 2 2 1-5 3c.875-4.875.875-4.875 2-6"></path><path fill="#585959" d="M516 381v3c-1.5 1.688-1.5 1.688-3 3v-4z"></path><path fill="#646364" d="M103 381h2v2h2l-2 4-2-2z"></path><path fill="#b98083" d="m229 336 3 3-1 3h-2a88 88 0 0 1-1-5z"></path><path fill="#242425" d="M105 293h2l-2 6h-3z"></path><path fill="#7e2f38" d="M407 288h2c1.354 2.709 1.065 5.01 1 8-1.945-2.918-2.453-4.625-3-8"></path><path fill="#2a2b2c" d="M132 282v2l-5 2-1-2c3-2 3-2 6-2"></path><path fill="#131314" d="M96 262h2v4l-3 1v-4z"></path><path fill="#222324" d="M439 223c1.938.313 1.938.313 4 1l1 3h-4z"></path><path fill="#444" d="m434 177 5 1-3 2-1 2-2-1z"></path><path fill="#6d6d6d" d="m251 462 5 1-1 3-3-1z"></path><path fill="#1c1d1e" d="M426 447h3l-1 4-4-1z"></path><path fill="#5b5c5d" d="M382 439c-2.25 1.125-2.25 1.125-5 2-2.312-.875-2.312-.875-4-2 3.378-.845 5.675-1.108 9 0"></path><path fill="#5f6161" d="M163 433c2.938.375 2.938.375 6 1l1 2c-2.937-.375-2.937-.375-6-1z"></path><path fill="#c8caca" d="M116 376c2.884 1.293 4.872 2.66 7 5h-3c-2.187-2.5-2.187-2.5-4-5"></path><path fill="#212223" d="M538 354c-.75 1.938-.75 1.938-2 4-2.125.75-2.125.75-4 1 1.127-3.38 2.212-5 6-5"></path><path fill="#555656" d="m550 337 1 3-4 4c1.875-5.875 1.875-5.875 3-7"></path><path fill="#4c080b" d="M403 291c1.563 1.25 1.563 1.25 3 3-.312 2.188-.312 2.188-1 4l-2-2c-.125-2.625-.125-2.625 0-5"></path><path fill="#a57177" d="M391 252c2.5 2.174 3.436 3.73 4 7l-5-5z"></path><path fill="#1b1b1c" d="M103 253h2a78 78 0 0 1-2 5l-2 1c.875-4.875.875-4.875 2-6"></path><path fill="#3e0507" d="m264 248-2 4-2-3c2-1 2-1 4-1m-4 4 2 2-3-1z"></path><path fill="#212324" d="m514 246 5 1v3c-3.875-1.75-3.875-1.75-5-4"></path><path fill="#79252f" d="m378 242 6 3v2c-1.875-.25-1.875-.25-4-1-1.25-2.062-1.25-2.062-2-4"></path><path fill="#2a2929" d="m464 236 4 2v2l-6-1z"></path><path fill="#3b3b3b" d="m451 218 6 2-2 3c-2.51-1.255-2.871-2.5-4-5"></path><path fill="#8f8e8e" d="m444 214 3 1 1 3-6-2z"></path><path fill="#9b9d9d" d="m207 181 2 1c-1.812 1.563-1.812 1.563-4 3l-3-1c2-2 2-2 5-3"></path><path fill="#848585" d="m397 461 4 2-7 1z"></path><path fill="#1a1c1c" d="M161 425c1.938.375 1.938.375 4 1l1 2h-5z"></path><path fill="#bbbbbc" d="m142 418 3 1-1 2 2 1-5-1z"></path><path fill="#4f4f50" d="m479 416 2 2-5 3v-3z"></path><path fill="#5f6061" d="m125 367 4 4h-4z"></path><path fill="#7a5659" d="m245 256 3 1-2 3-3-1z"></path><path fill="#a4a5a6" d="m118 241 1 2h-2l-2 4-1-3z"></path><path fill="#757675" d="m447 229 5 2-1 2-5-2z"></path><path fill="#1e2020" d="m337 222 5 1-2 2h-3z"></path><path fill="#a1a1a1" d="M172 200v3l-5 1v-2z"></path><path fill="#575757" d="m232 197 4 1-4 3-2-1z"></path><path fill="#535353" d="M203 449h3l-2 4-3-2h2z"></path><path fill="#1f2021" d="M190 440h4l-1 5c-2-2-2-2-3-5"></path><path fill="#7d7f7f" d="M421.125 430.438c.619.185 1.238.37 1.875.562l-5 2-1-2c2-1 2-1 4.125-.562"></path><path fill="#444646" d="m499 398 2 1-2 4-2-2z"></path><path fill="#828382" d="m474 386 3 1-4 3-2-1z"></path><path fill="#373a3a" d="M404 354h2l-1 5h-2z"></path><path fill="#2e2f31" d="M533 318h2l-2 4h-2z"></path><path fill="#4a161b" d="m401 271 3 3-1 3-3-4z"></path><path fill="#3a3c3c" d="m519 248 1 2h2l-1 3h-2l-1-3z"></path><path fill="#252627" d="m185 218 3 1-4 3-2-1z"></path><path fill="#313333" d="m441 206 3 1v2l-5-1z"></path><path fill="#b5b5b3" d="m166 195 4 1-3 3-2-1z"></path><path fill="#6d6d6c" d="m242 193 3 1v2l-3 1v-2l-2-1z"></path><path fill="#e4e4e4" d="m188 182 2 1v2l-5 1z"></path><path fill="#8f8f90" d="m412 166 6 2v2l-6-2z"></path><path fill="#363838" d="m424 448 2 1-2 4h-2z"></path><path fill="#e2e2e3" d="m131 407 5 3-2 2c-1.5-1.375-1.5-1.375-3-3z"></path><path fill="#747474" d="m471 401 3 2-4 2z"></path><path fill="#434340" d="M279 399c2.867.573 3.861.861 6 3-2.437-.375-2.437-.375-5-1z"></path><path fill="#505253" d="m505 392 2 1-2 4-2-1z"></path><path fill="#945f62" d="m404 275 4 4-3 1z"></path><path fill="#5e5e5e" d="M457 193c2.063.438 2.063.438 4 1l-1 3-4-3z"></path><path fill="#191a1b" d="m457 191 4 1v2l-4-1z"></path><path fill="#494b4c" d="m206 446 4 2-3 1-2-2z"></path><path fill="#292929" d="m373 440 4 1-5 2z"></path><path fill="#dbdcdc" d="m163 430 4 2-4 1z"></path><path fill="#a0a1a1" d="m448 418 2 1-3 3-2-2z"></path><path fill="#838483" d="m454 414 4 1-4 2z"></path><path fill="#a36f77" d="m342 404 3 2-5 1z"></path><path fill="#bcbcbc" d="m478 396 2 2-3 3-1-3z"></path><path fill="#161718" d="M494 366h2l-2 4-2-2z"></path><path fill="#232323" d="M136 225h2l1 3-4 1z"></path><path fill="#575756" d="m444 224 4 2-4 1z"></path><path fill="#393839" d="m273 192 3 2-6 1z"></path><path fill="#838485" d="m421 433 2 2-4 1v-2z"></path><path fill="#3f3f3f" d="M479 394h3l-1 3h-2z"></path><path fill="#b0b0b2" d="m535 352 1 3-3 1z"></path><path fill="#9a9b9d" d="m92 266 2 1-2 4-1-3z"></path><path fill="#4a4948" d="m118 248 1 3-3 1z"></path><path fill="#605f5e" d="m129 226 1 4-3-1z"></path><path fill="#141415" d="m428 218 3 1v2h-3z"></path><path fill="#817f7e" d="m407 210-1 3-4-2c3-1 3-1 5-1"></path><path fill="#7a7979" d="m480 205 3 3h-4z"></path><path fill="#373838" d="M156 205h2l-2 4-1-3z"></path><path fill="#656565" d="m397 190 3 1-1 3-2-1z"></path><path fill="#7f7f7f" d="m190 178 2 1-1 3-2-1z"></path><path fill="#b5b6b6" d="m423 432 3 1-3 2z"></path><path fill="#656566" d="m177 432 3 3-4-1z"></path><path fill="#5d6060" d="M159 424h2v3l-3-1z"></path><path fill="#6f6d6e" d="M468 419h2l-1 3h-2z"></path><path fill="#494848" d="M436 409h2v3l-3-1z"></path><path fill="#222224" d="m497 363 1 3h-3z"></path><path fill="#555" d="m538 351 2 3-2 1-2-2h2z"></path><path fill="#818182" d="m512 280 3 3-4-1z"></path><path fill="#5b5a59" d="m416 214 3 1-3 2z"></path><path fill="#656566" d="m199 213 3 2h-4z"></path><path fill="#343536" d="m444 184 2 1v2l-4-2z"></path><path fill="#dddcda" d="m197 178 3 1-1 2h-2z"></path><path fill="#4a4b4b" d="m409 167 2 1v2l-4-2z"></path><path fill="#353738" d="m456 407 3 2-3 1z"></path><path fill="#89484c" d="m283 390 2 1v2l-3-1z"></path><path fill="#3e3f3f" d="m132 375 3 1-2 2z"></path><path fill="#565758" d="m436 221 2 2-3 1z"></path><path fill="#464647" d="M180 221h2l-1 3-2-2z"></path><path fill="#4a4a48" d="m133 406 2 2h-3z"></path><path fill="#9f9f9e" d="m486 376 2 2h-3z"></path></svg></symbol><style class="style-fonts">
      </style></defs><rect x="0" y="0" width="1536" height="1536" fill="#1d1d1f"></rect><g transform="translate(0 0) rotate(0 768 768)"><use href="#image-4087530783" width="1536" height="1536" opacity="1"></use></g></svg>